Coordinates
version=1
nRows=43
nColumns=12
inDegrees=yes

Units are S.I. units (second, meters, Newtons, ...)
Angles are in degrees

endheader
time	SC_y	SC_z	SC_x	AC_y	AC_z	AC_x	GH_y	GH_z	GH_yy	EL_x	PS_y
       0.0              -34.38         0.6472          56.17          62.08         -2.663          9.798          154.7           40.0          152.0          14.99          151.1
   0.01242              -34.38         0.6507          56.17          62.08         -2.664            9.8          154.7           40.0          152.0           15.0          151.0
   0.02484              -34.38         0.6543          56.16          62.08         -2.666          9.801          154.7           40.0          152.0          15.01          151.0
   0.03726              -34.38         0.6582          56.15          62.08         -2.667          9.803          154.7           40.0          152.0          15.03          151.0
   0.04967              -34.38         0.6623          56.14          62.08         -2.669          9.805          154.7          39.99          152.0          15.04          151.0
   0.06209              -34.38         0.6668          56.13          62.08         -2.671          9.807          154.7          39.99          152.0          15.06          150.9
   0.07451              -34.38         0.6715          56.13          62.08         -2.673          9.809          154.7          39.99          152.0          15.08          150.9
   0.08693              -34.38         0.6765          56.12          62.08         -2.675          9.811          154.7          39.99          152.0           15.1          150.9
   0.09935              -34.38         0.6819          56.11          62.08         -2.678          9.813          154.7          39.99          152.0          15.11          150.9
    0.1118              -34.38         0.6877          56.09          62.09          -2.68          9.815          154.7          39.99          152.0          15.14          150.8
    0.1242              -34.38         0.6939          56.08          62.09         -2.683          9.818          154.7          39.99          152.0          15.16          150.8
    0.1366              -34.38         0.7006          56.07          62.09         -2.686          9.821          154.7          39.99          152.0          15.18          150.7
     0.149              -34.38         0.7078          56.06          62.09         -2.689          9.824          154.7          39.99          152.0          15.21          150.7
    0.1614              -34.38         0.7156          56.04          62.09         -2.692          9.827          154.7          39.99          152.0          15.24          150.7
    0.1739              -34.38          0.724          56.03          62.09         -2.696          9.831          154.7          39.98          152.0          15.27          150.6
    0.1863              -34.38         0.7332          56.01          62.09         -2.699          9.834          154.7          39.98          152.0           15.3          150.6
    0.1987              -34.38         0.7431          55.99          62.09         -2.704          9.838          154.7          39.98          152.0          15.34          150.5
    0.2111              -34.38         0.7539          55.97           62.1         -2.708          9.843          154.7          39.98          152.0          15.38          150.4
    0.2235              -34.39         0.7657          55.95           62.1         -2.713          9.848          154.7          39.98          152.0          15.42          150.4
     0.236              -34.39         0.7787          55.92           62.1         -2.719          9.853          154.7          39.97          152.0          15.47          150.3
    0.2484              -34.39         0.7929          55.89           62.1         -2.725          9.859          154.7          39.97          152.0          15.52          150.2
    0.2608              -34.39         0.8085          55.86           62.1         -2.732          9.866          154.7          39.97          151.9          15.57          150.1
    0.2732              -34.39         0.8258          55.83          62.11         -2.739          9.873          154.7          39.97          151.9          15.64          150.0
    0.2856              -34.39         0.8449          55.79          62.11         -2.747          9.881          154.7          39.96          151.9          15.71          149.9
     0.298              -34.39         0.8662          55.75          62.11         -2.757           9.89          154.7          39.96          151.9          15.78          149.8
    0.3105              -34.39         0.8899          55.71          62.12         -2.767            9.9          154.7          39.96          151.9          15.87          149.6
    0.3229              -34.39         0.9165          55.66          62.12         -2.778          9.911          154.7          39.95          151.9          15.97          149.5
    0.3353               -34.4         0.9464           55.6          62.13         -2.791          9.923          154.7          39.95          151.9          16.07          149.3
    0.3477               -34.4         0.9802          55.54          62.13         -2.805          9.937          154.6          39.94          151.9           16.2          149.1
    0.3601               -34.4          1.019          55.46          62.14         -2.822          9.953          154.6          39.93          151.8          16.34          148.8
    0.3726               -34.4          1.062          55.38          62.14         -2.841          9.972          154.6          39.93          151.8          16.49          148.6
     0.385               -34.4          1.113          55.28          62.15         -2.862          9.993          154.6          39.92          151.8          16.68          148.3
    0.3974              -34.41          1.171          55.17          62.16         -2.887          10.02          154.6          39.91          151.8          16.89          147.9
    0.4098              -34.41          1.238          55.04          62.17         -2.916          10.05          154.6          39.89          151.7          17.13          147.5
    0.4222              -34.42          1.317          54.89          62.18          -2.95          10.08          154.6          39.88          151.7          17.42          147.1
    0.4347              -34.42           1.41          54.72           62.2          -2.99          10.12          154.6          39.86          151.6          17.76          146.5
    0.4471              -34.43          1.521           54.5          62.21         -3.037          10.16          154.6          39.85          151.6          18.16          145.8
    0.4595              -34.44          1.653          54.25          62.23         -3.094          10.22          154.5          39.82          151.5          18.64          145.0
    0.4719              -34.44          1.813          53.95          62.26         -3.163          10.29          154.5          39.79          151.4          19.22          144.1
    0.4843              -34.46          2.009          53.57          62.29         -3.247          10.37          154.5          39.76          151.3          19.93          142.9
    0.4967              -34.47          2.251          53.11          62.32          -3.35          10.47          154.4          39.72          151.2           20.8          141.5
    0.5092              -34.49          2.552          52.53          62.37          -3.48          10.59          154.4          39.67          151.1           21.9          139.7
    0.5216              -34.51          2.932          51.81          62.43         -3.643          10.75          154.3           39.6          150.9          23.27          137.4
